<svg width="22" height="22" viewBox="0 0 22 22" fill="none" xmlns="http://www.w3.org/2000/svg">
<path d="M11 19.2502C12.945 19.2502 14.8103 18.4776 16.1856 17.1023C16.8676 16.422 17.4084 15.6137 17.777 14.7238C18.1456 13.8339 18.3346 12.8799 18.3334 11.9167C18.3345 10.9534 18.1453 9.99935 17.7766 9.10943C17.4078 8.21951 16.8668 7.41124 16.1847 6.73108C14.7492 5.29558 12.8334 4.58333 10.9872 2.75C8.70836 4.58333 8.25003 7.33333 8.25003 9.16667C6.41669 8.25 5.81444 6.73108 5.81444 6.73108C4.43914 8.10639 3.6665 9.9717 3.6665 11.9167C3.6665 13.8616 4.43914 15.7269 5.81444 17.1023C7.18975 18.4776 9.05506 19.2502 11 19.2502Z" stroke="url(#paint0_linear_3868_3963)" stroke-width="1.5" stroke-linecap="round" stroke-linejoin="round"/>
<path d="M10.2004 15.464C9.76823 15.3326 9.37511 15.0967 9.05575 14.7773C8.51858 14.241 8.25 13.537 8.25 12.833H10.0833L11.0138 10.083C11.4654 10.0852 11.9096 10.1986 12.3071 10.4132C12.7046 10.6278 13.043 10.937 13.2926 11.3135C13.5422 11.69 13.6952 12.1221 13.7381 12.5718C13.781 13.0214 13.7125 13.4747 13.5386 13.8916C13.3647 14.3085 13.0908 14.6761 12.7411 14.962C12.3914 15.2479 11.9767 15.4433 11.5335 15.5308C11.0904 15.6184 10.6325 15.5954 10.2004 15.464Z" stroke="url(#paint1_linear_3868_3963)" stroke-linecap="round" stroke-linejoin="round"/>
<defs>
<linearGradient id="paint0_linear_3868_3963" x1="10.9999" y1="2.75" x2="10.9999" y2="19.2502" gradientUnits="userSpaceOnUse">
<stop stop-color="#FF3D00"/>
<stop offset="1" stop-color="#FF5F00"/>
</linearGradient>
<linearGradient id="paint1_linear_3868_3963" x1="11.0003" y1="10.083" x2="11.0003" y2="15.583" gradientUnits="userSpaceOnUse">
<stop stop-color="#FF3D00"/>
<stop offset="1" stop-color="#FF5F00"/>
</linearGradient>
</defs>
</svg>
