<svg width="23" height="24" viewBox="0 0 23 24" fill="none" xmlns="http://www.w3.org/2000/svg">
<path d="M20.125 20.5342L14.375 14.7842M16.2917 9.99251C16.2917 10.8735 16.1182 11.7458 15.781 12.5597C15.4439 13.3736 14.9498 14.1131 14.3268 14.736C13.7039 15.3589 12.9644 15.8531 12.1505 16.1902C11.3366 16.5273 10.4643 16.7008 9.58333 16.7008C8.70238 16.7008 7.83006 16.5273 7.01617 16.1902C6.20227 15.8531 5.46275 15.3589 4.83983 14.736C4.2169 14.1131 3.72277 13.3736 3.38564 12.5597C3.04852 11.7458 2.875 10.8735 2.875 9.99251C2.875 8.21335 3.58177 6.50706 4.83983 5.249C6.09788 3.99095 7.80417 3.28418 9.58333 3.28418C11.3625 3.28418 13.0688 3.99095 14.3268 5.249C15.5849 6.50706 16.2917 8.21335 16.2917 9.99251Z" stroke="#AEAEAE" stroke-width="2" stroke-linecap="round" stroke-linejoin="round"/>
</svg>
