<svg width="22" height="22" viewBox="0 0 22 22" fill="none" xmlns="http://www.w3.org/2000/svg">
<path d="M11.8718 2.68299C11.5978 1.83874 10.4033 1.83874 10.1283 2.68299L8.73592 6.96749C8.67595 7.15142 8.55932 7.31166 8.40273 7.42527C8.24615 7.53889 8.05763 7.60004 7.86417 7.59999H3.35967C2.47234 7.59999 2.102 8.73666 2.82067 9.25916L6.46534 11.9065C6.6219 12.0203 6.73841 12.1808 6.79819 12.3649C6.85796 12.549 6.85793 12.7472 6.79809 12.9313L5.40659 17.2158C5.13159 18.0601 6.09867 18.7632 6.81642 18.2407L10.4611 15.5933C10.6177 15.4795 10.8064 15.4181 11.0001 15.4181C11.1938 15.4181 11.3824 15.4795 11.5391 15.5933L15.1838 18.2407C15.9015 18.7632 16.8686 18.061 16.5936 17.2158L15.2021 12.9313C15.1422 12.7472 15.1422 12.549 15.202 12.3649C15.2618 12.1808 15.3783 12.0203 15.5348 11.9065L19.1795 9.25916C19.8973 8.73666 19.5288 7.59999 18.6405 7.59999H14.1351C13.9418 7.59985 13.7535 7.5386 13.5971 7.425C13.4407 7.31141 13.3242 7.15127 13.2643 6.96749L11.8718 2.68299Z" stroke="url(#paint0_linear_3868_3972)" stroke-width="1.5" stroke-linecap="round" stroke-linejoin="round"/>
<defs>
<linearGradient id="paint0_linear_3868_3972" x1="11" y1="2.0498" x2="11" y2="18.4202" gradientUnits="userSpaceOnUse">
<stop stop-color="#FFD75C"/>
<stop offset="1" stop-color="#FAA61A"/>
</linearGradient>
</defs>
</svg>
