<svg width="27" height="26" viewBox="0 0 27 26" fill="none" xmlns="http://www.w3.org/2000/svg">
<path d="M0.645508 1.78453C0.645508 1.49902 0.760742 1.2252 0.96586 1.02331C1.17098 0.821427 1.44918 0.708008 1.73926 0.708008H2.55301C3.93843 0.708008 4.76967 1.62521 5.24363 2.47782C5.56009 3.04622 5.78905 3.70506 5.96843 4.30217C6.01694 4.2984 6.06559 4.29648 6.11426 4.29643H24.3405C25.5509 4.29643 26.4259 5.43611 26.0934 6.58297L23.4276 15.7822C23.1886 16.6074 22.6829 17.3334 21.9872 17.8503C21.2914 18.3673 20.4435 18.647 19.5718 18.6472H10.8976C10.0189 18.6473 9.16459 18.3633 8.46586 17.8389C7.76713 17.3146 7.2627 16.5789 7.03009 15.7449L5.92176 11.7661L4.08426 5.66864L4.0828 5.65715C3.8553 4.8433 3.64238 4.08112 3.32447 3.51272C3.01967 2.9601 2.77467 2.86106 2.55447 2.86106H1.73926C1.44918 2.86106 1.17098 2.74764 0.96586 2.54575C0.760742 2.34386 0.645508 2.07005 0.645508 1.78453ZM8.04363 11.2436L9.13884 15.1751C9.35759 15.953 10.0766 16.4942 10.8976 16.4942H19.5718C19.968 16.4942 20.3534 16.3671 20.6697 16.1322C20.986 15.8973 21.216 15.5673 21.3247 15.1923L23.8578 6.44948H6.6028L8.02322 11.1675L8.04363 11.2436ZM13.0413 22.9562C13.0413 23.7176 12.7341 24.4478 12.1871 24.9861C11.6401 25.5245 10.8982 25.8269 10.1247 25.8269C9.35113 25.8269 8.60926 25.5245 8.06228 24.9861C7.5153 24.4478 7.20801 23.7176 7.20801 22.9562C7.20801 22.1948 7.5153 21.4647 8.06228 20.9263C8.60926 20.3879 9.35113 20.0855 10.1247 20.0855C10.8982 20.0855 11.6401 20.3879 12.1871 20.9263C12.7341 21.4647 13.0413 22.1948 13.0413 22.9562ZM10.8538 22.9562C10.8538 22.7659 10.777 22.5833 10.6403 22.4487C10.5035 22.3141 10.3181 22.2385 10.1247 22.2385C9.93129 22.2385 9.74582 22.3141 9.60908 22.4487C9.47233 22.5833 9.39551 22.7659 9.39551 22.9562C9.39551 23.1465 9.47233 23.3291 9.60908 23.4637C9.74582 23.5983 9.93129 23.6739 10.1247 23.6739C10.3181 23.6739 10.5035 23.5983 10.6403 23.4637C10.777 23.3291 10.8538 23.1465 10.8538 22.9562ZM23.2497 22.9562C23.2497 23.7176 22.9424 24.4478 22.3954 24.9861C21.8484 25.5245 21.1066 25.8269 20.333 25.8269C19.5595 25.8269 18.8176 25.5245 18.2706 24.9861C17.7236 24.4478 17.4163 23.7176 17.4163 22.9562C17.4163 22.1948 17.7236 21.4647 18.2706 20.9263C18.8176 20.3879 19.5595 20.0855 20.333 20.0855C21.1066 20.0855 21.8484 20.3879 22.3954 20.9263C22.9424 21.4647 23.2497 22.1948 23.2497 22.9562ZM21.0622 22.9562C21.0622 22.7659 20.9854 22.5833 20.8486 22.4487C20.7119 22.3141 20.5264 22.2385 20.333 22.2385C20.1396 22.2385 19.9542 22.3141 19.8174 22.4487C19.6807 22.5833 19.6038 22.7659 19.6038 22.9562C19.6038 23.1465 19.6807 23.3291 19.8174 23.4637C19.9542 23.5983 20.1396 23.6739 20.333 23.6739C20.5264 23.6739 20.7119 23.5983 20.8486 23.4637C20.9854 23.3291 21.0622 23.1465 21.0622 22.9562Z" fill="#343538"/>
</svg>
