<svg width="116" height="29" viewBox="0 0 116 29" fill="none" xmlns="http://www.w3.org/2000/svg">
<path d="M16.7798 22.9997V11.5334C16.7798 7.72827 13.6951 4.64355 9.8899 4.64355V4.64355C6.08471 4.64355 3 7.72827 3 11.5335V22.9997" stroke="url(#paint0_linear_3857_3933)" stroke-width="5" stroke-linecap="round"/>
<path d="M30.5591 22.9997V11.5334C30.5591 7.72827 27.4744 4.64355 23.6692 4.64355V4.64355C19.864 4.64355 16.7793 7.72827 16.7793 11.5335V22.9997" stroke="url(#paint1_linear_3857_3933)" stroke-width="5" stroke-linecap="round"/>
<path d="M43.8271 23.104C42.5617 23.104 41.4264 22.792 40.4211 22.168C39.4157 21.5267 38.6184 20.6687 38.0291 19.594C37.4571 18.502 37.1711 17.2713 37.1711 15.902C37.1711 14.5327 37.4831 13.302 38.1071 12.21C38.7484 11.118 39.6064 10.26 40.6811 9.636C41.7731 8.99467 42.9951 8.674 44.3471 8.674C45.6991 8.674 46.9124 8.99467 47.9871 9.636C49.0617 10.26 49.9111 11.118 50.5351 12.21C51.1764 13.302 51.4971 14.5327 51.4971 15.902H50.4831C50.4831 17.2713 50.1884 18.502 49.5991 19.594C49.0271 20.6687 48.2384 21.5267 47.2331 22.168C46.2277 22.792 45.0924 23.104 43.8271 23.104ZM44.3471 20.764C45.2311 20.764 46.0197 20.556 46.7131 20.14C47.4064 19.7067 47.9524 19.126 48.3511 18.398C48.7497 17.6527 48.9491 16.8207 48.9491 15.902C48.9491 14.966 48.7497 14.134 48.3511 13.406C47.9524 12.6607 47.4064 12.08 46.7131 11.664C46.0197 11.2307 45.2311 11.014 44.3471 11.014C43.4804 11.014 42.6917 11.2307 41.9811 11.664C41.2877 12.08 40.7331 12.6607 40.3171 13.406C39.9184 14.134 39.7191 14.966 39.7191 15.902C39.7191 16.8207 39.9184 17.6527 40.3171 18.398C40.7331 19.126 41.2877 19.7067 41.9811 20.14C42.6917 20.556 43.4804 20.764 44.3471 20.764ZM50.1711 23.026C49.7897 23.026 49.4691 22.9047 49.2091 22.662C48.9664 22.402 48.8451 22.0813 48.8451 21.7V17.722L49.3391 14.966L51.4971 15.902V21.7C51.4971 22.0813 51.3671 22.402 51.1071 22.662C50.8644 22.9047 50.5524 23.026 50.1711 23.026ZM67.456 23.026C67.0747 23.026 66.754 22.9047 66.494 22.662C66.2513 22.402 66.13 22.0813 66.13 21.7V15.304C66.13 14.316 65.948 13.51 65.584 12.886C65.22 12.262 64.726 11.8027 64.102 11.508C63.4953 11.196 62.7933 11.04 61.996 11.04C61.268 11.04 60.6093 11.1873 60.02 11.482C59.4307 11.7767 58.9627 12.1753 58.616 12.678C58.2693 13.1633 58.096 13.7267 58.096 14.368H56.458C56.458 13.276 56.718 12.3053 57.238 11.456C57.7753 10.5893 58.5033 9.90467 59.422 9.402C60.3407 8.89933 61.372 8.648 62.516 8.648C63.712 8.648 64.778 8.908 65.714 9.428C66.6673 9.93067 67.4127 10.676 67.95 11.664C68.5047 12.652 68.782 13.8653 68.782 15.304V21.7C68.782 22.0813 68.652 22.402 68.392 22.662C68.1493 22.9047 67.8373 23.026 67.456 23.026ZM56.77 23.026C56.3887 23.026 56.068 22.9047 55.808 22.662C55.5653 22.402 55.444 22.0813 55.444 21.7V10.104C55.444 9.70533 55.5653 9.38467 55.808 9.142C56.068 8.89933 56.3887 8.778 56.77 8.778C57.1687 8.778 57.4893 8.89933 57.732 9.142C57.9747 9.38467 58.096 9.70533 58.096 10.104V21.7C58.096 22.0813 57.9747 22.402 57.732 22.662C57.4893 22.9047 57.1687 23.026 56.77 23.026ZM74.7007 23C74.3713 23 74.0767 22.8787 73.8167 22.636C73.5567 22.3933 73.4267 22.0727 73.4267 21.674V8.856C73.4267 7.608 73.6693 6.52467 74.1547 5.606C74.6573 4.68733 75.3507 3.97667 76.2347 3.474C77.1187 2.954 78.1413 2.694 79.3027 2.694C79.684 2.694 79.996 2.80667 80.2387 3.032C80.4987 3.25733 80.6287 3.54333 80.6287 3.89C80.6287 4.21933 80.4987 4.50533 80.2387 4.748C79.996 4.97333 79.684 5.086 79.3027 5.086C78.6613 5.086 78.098 5.23333 77.6127 5.528C77.1273 5.82267 76.746 6.23 76.4687 6.75C76.2087 7.27 76.0787 7.88533 76.0787 8.596V21.674C76.0787 22.0727 75.9573 22.3933 75.7147 22.636C75.472 22.8787 75.134 23 74.7007 23ZM72.3087 11.534C71.9447 11.534 71.65 11.43 71.4247 11.222C71.1993 11.014 71.0867 10.754 71.0867 10.442C71.0867 10.0953 71.1993 9.818 71.4247 9.61C71.65 9.402 71.9447 9.298 72.3087 9.298H78.7307C79.0947 9.298 79.3893 9.402 79.6147 9.61C79.84 9.818 79.9527 10.0953 79.9527 10.442C79.9527 10.754 79.84 11.014 79.6147 11.222C79.3893 11.43 79.0947 11.534 78.7307 11.534H72.3087ZM88.1337 23.104C86.8684 23.104 85.7331 22.792 84.7277 22.168C83.7224 21.5267 82.9251 20.6687 82.3357 19.594C81.7637 18.502 81.4777 17.2713 81.4777 15.902C81.4777 14.5327 81.7897 13.302 82.4137 12.21C83.0551 11.118 83.9131 10.26 84.9877 9.636C86.0797 8.99467 87.3017 8.674 88.6537 8.674C90.0057 8.674 91.2191 8.99467 92.2937 9.636C93.3684 10.26 94.2177 11.118 94.8417 12.21C95.4831 13.302 95.8037 14.5327 95.8037 15.902H94.7897C94.7897 17.2713 94.4951 18.502 93.9057 19.594C93.3337 20.6687 92.5451 21.5267 91.5397 22.168C90.5344 22.792 89.3991 23.104 88.1337 23.104ZM88.6537 20.764C89.5377 20.764 90.3264 20.556 91.0197 20.14C91.7131 19.7067 92.2591 19.126 92.6577 18.398C93.0564 17.6527 93.2557 16.8207 93.2557 15.902C93.2557 14.966 93.0564 14.134 92.6577 13.406C92.2591 12.6607 91.7131 12.08 91.0197 11.664C90.3264 11.2307 89.5377 11.014 88.6537 11.014C87.7871 11.014 86.9984 11.2307 86.2877 11.664C85.5944 12.08 85.0397 12.6607 84.6237 13.406C84.2251 14.134 84.0257 14.966 84.0257 15.902C84.0257 16.8207 84.2251 17.6527 84.6237 18.398C85.0397 19.126 85.5944 19.7067 86.2877 20.14C86.9984 20.556 87.7871 20.764 88.6537 20.764ZM94.4777 23.026C94.0964 23.026 93.7757 22.9047 93.5157 22.662C93.2731 22.402 93.1517 22.0813 93.1517 21.7V17.722L93.6457 14.966L95.8037 15.902V21.7C95.8037 22.0813 95.6737 22.402 95.4137 22.662C95.1711 22.9047 94.8591 23.026 94.4777 23.026ZM105.679 23.104C104.413 23.104 103.278 22.792 102.273 22.168C101.267 21.5267 100.47 20.6687 99.8806 19.594C99.3086 18.502 99.0226 17.2713 99.0226 15.902C99.0226 14.5327 99.3346 13.302 99.9586 12.21C100.6 11.118 101.458 10.26 102.533 9.636C103.625 8.99467 104.847 8.674 106.199 8.674C107.551 8.674 108.764 8.99467 109.839 9.636C110.913 10.26 111.763 11.118 112.387 12.21C113.028 13.302 113.349 14.5327 113.349 15.902H112.335C112.335 17.2713 112.04 18.502 111.451 19.594C110.879 20.6687 110.09 21.5267 109.085 22.168C108.079 22.792 106.944 23.104 105.679 23.104ZM106.199 20.764C107.083 20.764 107.871 20.556 108.565 20.14C109.258 19.7067 109.804 19.126 110.203 18.398C110.601 17.6527 110.801 16.8207 110.801 15.902C110.801 14.966 110.601 14.134 110.203 13.406C109.804 12.6607 109.258 12.08 108.565 11.664C107.871 11.2307 107.083 11.014 106.199 11.014C105.332 11.014 104.543 11.2307 103.833 11.664C103.139 12.08 102.585 12.6607 102.169 13.406C101.77 14.134 101.571 14.966 101.571 15.902C101.571 16.8207 101.77 17.6527 102.169 18.398C102.585 19.126 103.139 19.7067 103.833 20.14C104.543 20.556 105.332 20.764 106.199 20.764ZM112.023 23.026C111.641 23.026 111.321 22.9047 111.061 22.662C110.818 22.402 110.697 22.0813 110.697 21.7V17.722L111.191 14.966L113.349 15.902V21.7C113.349 22.0813 113.219 22.402 112.959 22.662C112.716 22.9047 112.404 23.026 112.023 23.026Z" fill="url(#paint2_linear_3857_3933)"/>
<defs>
<linearGradient id="paint0_linear_3857_3933" x1="3" y1="4.64355" x2="20.6264" y2="17.8756" gradientUnits="userSpaceOnUse">
<stop stop-color="#FFA553"/>
<stop offset="1" stop-color="#FF6C58"/>
</linearGradient>
<linearGradient id="paint1_linear_3857_3933" x1="16.7793" y1="4.64355" x2="34.4057" y2="17.8756" gradientUnits="userSpaceOnUse">
<stop stop-color="#FFA553"/>
<stop offset="1" stop-color="#FF6C58"/>
</linearGradient>
<linearGradient id="paint2_linear_3857_3933" x1="35.5591" y1="0" x2="54.1422" y2="51.2636" gradientUnits="userSpaceOnUse">
<stop stop-color="#FFA553"/>
<stop offset="1" stop-color="#FF6C58"/>
</linearGradient>
</defs>
</svg>
